<?xml version="1.0" encoding="utf-8"?>
<!-- Generator: Adobe Illustrator 15.1.0, SVG Export Plug-In . SVG Version: 6.00 Build 0)  -->
<!DOCTYPE svg PUBLIC "-//W3C//DTD SVG 1.1//EN" "http://www.w3.org/Graphics/SVG/1.1/DTD/svg11.dtd">
<svg version="1.1" id="Ginger" xmlns="http://www.w3.org/2000/svg" xmlns:xlink="http://www.w3.org/1999/xlink" x="0px" y="0px"
	 width="367px" height="236px" viewBox="0 0 367 236" enable-background="new 0 0 367 236" xml:space="preserve">
<path id="Oval-1" fill="none" stroke="#252428" stroke-width="10" d="M0,231h250.035C311.87,231,362,180.405,362,118
	S311.87,5,250.035,5H0"/>
<path id="Oval-2" opacity="0.15" fill="#252428" enable-background="new    " d="M174.738,36.843
	c-3.086,0.385-5.738,3.225-5.738,6.33v152.06c0,2.335,2.03,4.466,4.344,4.754c0,0,50.441,6.514,75.081,6.514
	c48.602,0,88.038-39.398,88.038-88c0-48.601-39.455-88-88.057-88C223.767,30.5,174.738,36.843,174.738,36.843z"/>
<path id="Shape" opacity="0.85" fill="#252428" enable-background="new    " d="M265.128,55.16
	c-8.749,10.525-17.47,21.076-26.194,31.621c-7.998,9.665-15.999,19.325-23.99,28.999c-1.174,1.418-2.412,2.801-3.399,4.346
	c-0.451,0.71-0.632,1.41-0.584,2.047c0.179,1.243,0.979,1.987,2.123,2.288c0.853,0.226,1.758,0.305,2.646,0.333
	c1.903,0.056,3.81,0.048,5.717,0.048c2.323,0.001,4.65-0.012,6.972-0.03c0.251-0.001,0.477,0.034,0.68,0.101
	c-0.961,1.609-4.157,6.987-4.879,8.193c-2.628,4.379-5.254,8.758-7.883,13.138c-6.431,10.717-12.867,21.435-19.273,32.167
	c-0.384,0.642-0.662,1.408-0.747,2.145c-0.153,1.344,0.955,2.267,2.242,1.84c0.687-0.228,1.39-0.705,1.854-1.262
	c9.718-11.686,19.402-23.395,29.09-35.102c1.9-2.298,6.166-7.649,8.068-9.948c0.159-0.181,0.304-0.341,0.439-0.507
	c4.598-5.556,9.201-11.104,13.781-16.675c0.83-1.012,1.584-2.089,2.318-3.172c0.232-0.34,0.364-0.79,0.416-1.204
	c0.032-0.261,0.026-0.501-0.01-0.728c-0.23-1.074-1.128-1.921-2.542-2.224c-1.024-0.135-2.062-0.371-3.096-0.38
	c-0.892-0.008-1.789-0.193-2.681-0.193h-1.845c-1.926,0-3.85,0.173-5.775,0.167c-0.22,0-0.44,0.082-0.659,0.076
	c-0.125-0.004-0.235,0.032-0.337,0.019c-0.087-0.007-0.174,0.015-0.263,0.005c-0.464-0.047-0.62-0.307-0.436-0.734
	c0.127-0.296,0.283-0.576,0.449-0.85c7.182-11.971,14.364-23.938,21.547-35.909c3.107-5.184,6.214-10.368,9.321-15.552
	c0.396-0.657,0.739-1.333,0.903-2.089c0.165-0.766,0.15-1.503-0.513-2.042c-0.654-0.53-1.361-0.392-2.058-0.069
	C266.003,54.301,265.502,54.714,265.128,55.16z"/>
<path id="Rectangle-2" fill="#252428" d="M46,37.5v162c0,1.656-0.896,3-2,3l0,0c-1.104,0-2-1.344-2-3v-162c0-1.657,0.896-3,2-3l0,0
	C45.104,34.5,46,35.843,46,37.5z"/>
<path id="Rectangle-2_1_" fill="#252428" d="M55,57.5v122c0,1.656-0.896,3-2,3l0,0c-1.104,0-2-1.344-2-3v-122c0-1.657,0.896-3,2-3
	l0,0C54.104,54.5,55,55.843,55,57.5z"/>
<path id="Rectangle-2_2_" fill="#252428" d="M38,57.5v122c0,1.656-0.896,3-2,3l0,0c-1.104,0-2-1.344-2-3v-122c0-1.657,0.896-3,2-3
	l0,0C37.104,54.5,38,55.843,38,57.5z"/>
</svg>
