<?xml version="1.0" encoding="utf-8"?>
<!-- Generator: Adobe Illustrator 15.1.0, SVG Export Plug-In . SVG Version: 6.00 Build 0)  -->
<!DOCTYPE svg PUBLIC "-//W3C//DTD SVG 1.1//EN" "http://www.w3.org/Graphics/SVG/1.1/DTD/svg11.dtd">
<svg version="1.1" id="Layer_1" xmlns="http://www.w3.org/2000/svg" xmlns:xlink="http://www.w3.org/1999/xlink" x="0px" y="0px"
	 width="600px" height="600px" viewBox="0 0 600 600" enable-background="new 0 0 600 600" xml:space="preserve">
<g>
	<g display="none">
		<path display="inline" fill="#D95552" d="M300.957,47.078c34.158,0,67.278,6.683,98.438,19.863
			c30.114,12.737,57.166,30.979,80.404,54.216c23.238,23.238,41.479,50.291,54.217,80.404c13.18,31.161,19.862,64.28,19.862,98.438
			s-6.683,67.278-19.862,98.439c-12.737,30.113-30.979,57.165-54.217,80.403s-50.29,41.479-80.403,54.217
			c-31.161,13.18-64.281,19.862-98.439,19.862s-67.278-6.683-98.438-19.862c-30.114-12.737-57.166-30.979-80.404-54.217
			c-23.238-23.238-41.479-50.29-54.216-80.404c-13.18-31.16-19.863-64.28-19.863-98.438s6.683-67.278,19.863-98.438
			c12.737-30.114,30.979-57.166,54.217-80.404c23.238-23.238,50.29-41.479,80.404-54.217
			C233.679,53.761,266.799,47.078,300.957,47.078 M300.957,15.078C143.6,15.078,16.035,142.643,16.035,300
			c0,157.358,127.564,284.922,284.922,284.922c157.358,0,284.922-127.563,284.922-284.922
			C585.879,142.643,458.315,15.078,300.957,15.078L300.957,15.078z"/>
	</g>
	<rect x="178" y="441" fill-rule="evenodd" clip-rule="evenodd" fill="#D95552" width="246" height="41"/>
	<rect x="137" y="359" fill-rule="evenodd" clip-rule="evenodd" fill="#D95552" width="328" height="42"/>
	<rect x="97" y="278" fill-rule="evenodd" clip-rule="evenodd" fill="#D95552" width="408" height="42"/>
	<rect x="137" y="197" fill-rule="evenodd" clip-rule="evenodd" fill="#D95552" width="328" height="42"/>
	<rect x="178" y="116" fill-rule="evenodd" clip-rule="evenodd" fill="#D95552" width="246" height="41"/>
</g>
<g>
	<path fill="#D95552" d="M300,33c36.06,0,71.022,7.055,103.918,20.969c31.791,13.446,60.349,32.702,84.88,57.234
		c24.531,24.531,43.787,53.089,57.233,84.879C559.945,228.978,567,263.94,567,300s-7.055,71.022-20.969,103.918
		c-13.446,31.791-32.702,60.349-57.233,84.88s-53.089,43.787-84.88,57.233C371.022,559.945,336.06,567,300,567
		s-71.022-7.055-103.918-20.969c-31.79-13.446-60.348-32.702-84.879-57.233c-24.532-24.531-43.788-53.089-57.234-84.88
		C40.055,371.022,33,336.06,33,300s7.055-71.022,20.969-103.918c13.446-31.79,32.702-60.348,57.234-84.879
		c24.531-24.532,53.089-43.788,84.879-57.234C228.978,40.055,263.94,33,300,33 M300,0C134.314,0,0,134.314,0,300
		s134.314,300,300,300s300-134.314,300-300S465.686,0,300,0L300,0z"/>
</g>
</svg>
